<svg width="23" height="20" viewBox="0 0 23 20" fill="none" xmlns="http://www.w3.org/2000/svg">
<g clip-path="url(#clip0_20_291)">
<path d="M12.6538 0.703125C12.4422 0.273438 11.9949 0 11.5038 0C11.0126 0 10.5694 0.273438 10.3538 0.703125L7.78626 5.87109L2.05223 6.69922C1.57307 6.76953 1.17376 7.09766 1.02602 7.54688C0.878274 7.99609 0.998065 8.49219 1.34147 8.82422L5.50223 12.8516L4.51994 18.543C4.44008 19.0117 4.63973 19.4883 5.03504 19.7656C5.43036 20.043 5.95345 20.0781 6.3847 19.8555L11.5078 17.1797L16.6309 19.8555C17.0621 20.0781 17.5852 20.0469 17.9805 19.7656C18.3758 19.4844 18.5755 19.0117 18.4956 18.543L17.5093 12.8516L21.6701 8.82422C22.0135 8.49219 22.1373 7.99609 21.9856 7.54688C21.8338 7.09766 21.4385 6.76953 20.9594 6.69922L15.2213 5.87109L12.6538 0.703125Z" fill="#FACC15" style="fill:#FACC15;fill:color(display-p3 0.9804 0.8000 0.0824);fill-opacity:1;"/>
</g>
<defs>
<clipPath id="clip0_20_291">
<rect width="23" height="20" fill="white" style="fill:white;fill-opacity:1;"/>
</clipPath>
</defs>
</svg>
