<svg width="23" height="20" viewBox="0 0 23 20" fill="none" xmlns="http://www.w3.org/2000/svg">
<g clip-path="url(#clip0_20_293)">
<path d="M15.9722 0H7.02778C5.96962 0 5.10712 0.851563 5.14705 1.88281C5.15503 2.08984 5.16302 2.29688 5.175 2.5H0.958333C0.427257 2.5 0 2.91797 0 3.4375C0 7.05469 1.33767 9.57031 3.13455 11.2773C4.90347 12.9609 7.05972 13.8086 8.64896 14.2383C9.58333 14.4922 10.2222 15.2539 10.2222 16.0195C10.2222 16.8359 9.5434 17.5 8.70885 17.5H7.66667C6.9599 17.5 6.38889 18.0586 6.38889 18.75C6.38889 19.4414 6.9599 20 7.66667 20H15.3333C16.0401 20 16.6111 19.4414 16.6111 18.75C16.6111 18.0586 16.0401 17.5 15.3333 17.5H14.2911C13.4566 17.5 12.7778 16.8359 12.7778 16.0195C12.7778 15.2539 13.4127 14.4883 14.351 14.2383C15.9443 13.8086 18.1005 12.9609 19.8694 11.2773C21.6623 9.57031 23 7.05469 23 3.4375C23 2.91797 22.5727 2.5 22.0417 2.5H17.825C17.837 2.29688 17.845 2.09375 17.853 1.88281C17.8929 0.851563 17.0304 0 15.9722 0ZM1.9526 4.375H5.32274C5.68611 7.89453 6.48872 10.2461 7.39514 11.8203C6.40087 11.3906 5.36667 10.7852 4.47222 9.93359C3.19444 8.71875 2.15625 6.96484 1.9566 4.375H1.9526ZM18.5318 9.93359C17.6373 10.7852 16.6031 11.3906 15.6089 11.8203C16.5153 10.2461 17.3179 7.89453 17.6812 4.375H21.0514C20.8477 6.96484 19.8095 8.71875 18.5358 9.93359H18.5318Z" fill="white" style="fill:white;fill-opacity:1;"/>
</g>
<defs>
<clipPath id="clip0_20_293">
<rect width="23" height="20" fill="white" style="fill:white;fill-opacity:1;"/>
</clipPath>
</defs>
</svg>
